<?xml version="1.0" encoding="UTF-8" standalone="no"?> <svg width="64" height="64" viewBox="0 0 64 64" fill="none" xmlns="http://www.w3.org/2000/svg">
<path d="M56.66 47.07C56.5452 43.7208 55.6999 40.4372 54.1833 37.4489C52.6667 34.4607 50.5155 31.8399 47.88 29.77L47.09 29.16C46.9838 29.0822 46.8632 29.0262 46.7352 28.9952C46.6072 28.9642 46.4744 28.9587 46.3443 28.9792C46.2143 28.9996 46.0895 29.0455 45.9772 29.1143C45.8649 29.1831 45.7673 29.2734 45.69 29.38C43.7697 32.0439 41.6892 34.5886 39.46 37C39.0351 37.4108 38.532 37.7322 37.9807 37.9452C37.4293 38.1582 36.8408 38.2584 36.25 38.24C35.3613 38.218 34.499 37.9334 33.7719 37.4218C33.0447 36.9103 32.4854 36.1949 32.1645 35.3658C31.8436 34.5368 31.7754 33.6312 31.9686 32.7635C32.1618 31.8957 32.6077 31.1046 33.25 30.49C34.7929 29.162 36.4051 27.9169 38.08 26.76V26.76C38.2589 26.6142 38.3853 26.4141 38.44 26.19C38.4979 25.937 38.4552 25.6714 38.3208 25.4493C38.1864 25.2272 37.971 25.0661 37.72 25C37.57 25 37.42 24.93 37.27 24.91C35.527 24.5457 33.7507 24.3647 31.97 24.37C18.47 24.37 7.81003 34.27 7.28003 47.08C7.28003 47.41 7.28003 47.74 7.28003 48.08C7.28003 48.3452 7.38539 48.5996 7.57292 48.7871C7.76046 48.9746 8.01481 49.08 8.28003 49.08H55.68C55.9452 49.08 56.1996 48.9746 56.3871 48.7871C56.5747 48.5996 56.68 48.3452 56.68 48.08C56.68 47.74 56.67 47.4 56.66 47.07Z" fill="#BF530A"/>
<path d="M60.1 14.5601C59.7851 14.2385 59.4083 13.9841 58.9924 13.8123C58.5765 13.6404 58.13 13.5546 57.68 13.5601C57.7103 13.0576 57.6267 12.5547 57.4353 12.0891C57.2439 11.6235 56.9498 11.2071 56.5748 10.8712C56.1999 10.5353 55.7539 10.2884 55.2701 10.1492C54.7863 10.0099 54.2773 9.98177 53.7812 10.0669C53.285 10.1521 52.8145 10.3483 52.4048 10.6409C51.9952 10.9335 51.6569 11.3149 51.4154 11.7566C51.174 12.1983 51.0354 12.6889 51.0102 13.1917C50.9851 13.6945 51.0739 14.1965 51.27 14.6601L46.63 19.0801C46.5367 19.1767 46.4638 19.2912 46.4157 19.4166C46.3676 19.542 46.3452 19.6759 46.35 19.8101C46.3538 20.0856 46.4608 20.3497 46.65 20.5501L50.07 24.1401C50.1629 24.2376 50.2746 24.3153 50.3984 24.3686C50.5221 24.4219 50.6553 24.4496 50.79 24.4501C51.0509 24.4517 51.3021 24.3512 51.49 24.1701L56.07 19.8001C56.7668 20.1764 57.575 20.2921 58.3494 20.1263C59.1239 19.9605 59.8139 19.5242 60.2956 18.8955C60.7773 18.2669 61.0192 17.4872 60.9778 16.6963C60.9365 15.9054 60.6146 15.1551 60.07 14.5801L60.1 14.5601Z" fill="#BDC6BA"/>
<path d="M10.88 14.0002C10.8948 12.7714 10.4731 11.5772 9.69002 10.6302C9.15402 10.0242 8.86496 9.23907 8.88002 8.43018C8.88002 8.16496 8.77466 7.91061 8.58712 7.72307C8.39959 7.53553 8.14523 7.43018 7.88002 7.43018C7.6148 7.43018 7.36045 7.53553 7.17291 7.72307C6.98537 7.91061 6.88002 8.16496 6.88002 8.43018C6.8652 9.65897 7.28689 10.8532 8.07002 11.8002C8.59528 12.4128 8.88401 13.1932 8.88401 14.0002C8.88401 14.8072 8.59528 15.5875 8.07002 16.2002C7.30132 17.1532 6.88211 18.3408 6.88211 19.5652C6.88211 20.7896 7.30132 21.9771 8.07002 22.9302C8.59261 23.5421 8.87973 24.3204 8.87973 25.1252C8.87973 25.9299 8.59261 26.7082 8.07002 27.3202C7.28835 28.2641 6.86671 29.4547 6.88002 30.6802C6.88002 30.9454 6.98537 31.1997 7.17291 31.3873C7.36045 31.5748 7.6148 31.6802 7.88002 31.6802C8.14523 31.6802 8.39959 31.5748 8.58712 31.3873C8.77466 31.1997 8.88002 30.9454 8.88002 30.6802C8.86552 29.8744 9.15467 29.0926 9.69002 28.4902C10.4587 27.5371 10.8779 26.3496 10.8779 25.1252C10.8779 23.9008 10.4587 22.7132 9.69002 21.7602C9.16475 21.1475 8.87602 20.3672 8.87602 19.5602C8.87602 18.7532 9.16475 17.9728 9.69002 17.3602C10.4709 16.4158 10.8925 15.2255 10.88 14.0002V14.0002Z" fill="#C10600"/>
<path d="M19.63 12.4002C19.624 11.8824 19.5044 11.3723 19.2798 10.9058C19.0552 10.4393 18.731 10.0278 18.33 9.70017C17.84 9.21017 17.63 8.98017 17.63 8.42017C17.63 8.15495 17.5246 7.9006 17.3371 7.71306C17.1496 7.52552 16.8952 7.42017 16.63 7.42017C16.3648 7.42017 16.1104 7.52552 15.9229 7.71306C15.7354 7.9006 15.63 8.15495 15.63 8.42017C15.6361 8.9379 15.7556 9.448 15.9802 9.91451C16.2048 10.381 16.529 10.7926 16.93 11.1202C17.42 11.6102 17.63 11.8402 17.63 12.4002C17.63 12.9602 17.41 13.1902 16.93 13.6802C16.5256 14.0034 16.1992 14.4134 15.9748 14.8799C15.7504 15.3465 15.6339 15.8575 15.6339 16.3752C15.6339 16.8928 15.7504 17.4039 15.9748 17.8704C16.1992 18.3369 16.5256 18.747 16.93 19.0702C17.42 19.5502 17.63 19.7902 17.63 20.3402C17.63 20.8902 17.41 21.1302 16.93 21.6102C16.5298 21.9362 16.206 22.3461 15.9814 22.8109C15.7568 23.2756 15.6368 23.784 15.63 24.3002C15.63 24.5654 15.7354 24.8197 15.9229 25.0073C16.1104 25.1948 16.3648 25.3002 16.63 25.3002C16.8952 25.3002 17.1496 25.1948 17.3371 25.0073C17.5246 24.8197 17.63 24.5654 17.63 24.3002C17.63 23.7502 17.85 23.5102 18.33 23.0302C18.7344 22.707 19.0609 22.2969 19.2852 21.8304C19.5096 21.3639 19.6261 20.8528 19.6261 20.3352C19.6261 19.8175 19.5096 19.3065 19.2852 18.8399C19.0609 18.3734 18.7344 17.9634 18.33 17.6402C17.84 17.1602 17.63 16.9202 17.63 16.3702C17.63 15.8202 17.85 15.5802 18.33 15.0902C18.7297 14.7637 19.0531 14.3537 19.2777 13.889C19.5023 13.4244 19.6225 12.9162 19.63 12.4002V12.4002Z" fill="#C10600"/>
<path d="M27 13.8602C27.4072 13.6156 27.7474 13.2738 27.99 12.8654C28.2326 12.457 28.3701 11.9948 28.39 11.5202C28.3701 11.0456 28.2326 10.5833 27.99 10.1749C27.7474 9.76651 27.4072 9.42471 27 9.18017C26.48 8.78017 26.39 8.66017 26.39 8.42017C26.39 8.15495 26.2846 7.9006 26.0971 7.71306C25.9096 7.52552 25.6552 7.42017 25.39 7.42017C25.1248 7.42017 24.8704 7.52552 24.6829 7.71306C24.4954 7.9006 24.39 8.15495 24.39 8.42017C24.4099 8.89477 24.5474 9.35701 24.79 9.76542C25.0326 10.1738 25.3727 10.5156 25.78 10.7602C26.3 11.1602 26.39 11.2802 26.39 11.5202C26.39 11.7602 26.29 11.8802 25.78 12.2802C25.3727 12.5247 25.0326 12.8665 24.79 13.2749C24.5474 13.6833 24.4099 14.1456 24.39 14.6202C24.4003 15.1 24.5312 15.5694 24.7707 15.9854C25.0101 16.4013 25.3503 16.7503 25.76 17.0002C26.27 17.4002 26.37 17.5202 26.37 17.7502C26.37 17.9802 26.27 18.1102 25.76 18.5002C25.3521 18.744 25.0115 19.0857 24.7688 19.4942C24.5261 19.9028 24.389 20.3654 24.37 20.8402C24.37 21.1054 24.4754 21.3597 24.6629 21.5473C24.8504 21.7348 25.1048 21.8402 25.37 21.8402C25.6352 21.8402 25.8896 21.7348 26.0771 21.5473C26.2646 21.3597 26.37 21.1054 26.37 20.8402C26.37 20.6002 26.47 20.4802 26.98 20.0902C27.3878 19.8463 27.7285 19.5047 27.9712 19.0961C28.2139 18.6876 28.3509 18.225 28.37 17.7502C28.3597 17.2704 28.2287 16.8009 27.9893 16.385C27.7499 15.9691 27.4097 15.6201 27 15.3702C26.49 14.9702 26.39 14.8502 26.39 14.6202C26.39 14.3902 26.47 14.2602 27 13.8602Z" fill="#C10600"/>
<path d="M35.74 13.8602C36.1472 13.6156 36.4874 13.2738 36.73 12.8654C36.9726 12.457 37.1101 11.9948 37.13 11.5202C37.1101 11.0456 36.9726 10.5833 36.73 10.1749C36.4874 9.76651 36.1472 9.42471 35.74 9.18017C35.22 8.78017 35.13 8.66017 35.13 8.42017C35.13 8.15495 35.0246 7.9006 34.8371 7.71306C34.6496 7.52552 34.3952 7.42017 34.13 7.42017C33.8648 7.42017 33.6104 7.52552 33.4229 7.71306C33.2354 7.9006 33.13 8.15495 33.13 8.42017C33.1499 8.89477 33.2874 9.35701 33.53 9.76542C33.7726 10.1738 34.1128 10.5156 34.52 10.7602C35.04 11.1602 35.13 11.2802 35.13 11.5202C35.13 11.7602 35.03 11.8802 34.52 12.2802C34.1128 12.5247 33.7726 12.8665 33.53 13.2749C33.2874 13.6833 33.1499 14.1456 33.13 14.6202C33.1414 15.1009 33.2738 15.571 33.515 15.987C33.7562 16.403 34.0984 16.7515 34.51 17.0002C35.02 17.4002 35.12 17.5202 35.12 17.7502C35.12 17.9802 35.02 18.1102 34.51 18.5002C34.1021 18.744 33.7615 19.0857 33.5188 19.4942C33.2761 19.9028 33.139 20.3654 33.12 20.8402C33.12 21.1054 33.2254 21.3597 33.4129 21.5473C33.6004 21.7348 33.8548 21.8402 34.12 21.8402C34.3852 21.8402 34.6396 21.7348 34.8271 21.5473C35.0146 21.3597 35.12 21.1054 35.12 20.8402C35.12 20.6002 35.22 20.4802 35.73 20.0902C36.1378 19.8463 36.4785 19.5047 36.7212 19.0961C36.9639 18.6876 37.1009 18.225 37.12 17.7502C37.1009 17.2754 36.9639 16.8128 36.7212 16.4042C36.4785 15.9957 36.1378 15.654 35.73 15.4102C35.22 15.0102 35.12 14.8902 35.12 14.6602C35.12 14.4302 35.22 14.2602 35.74 13.8602Z" fill="#C10600"/>
<path d="M44.32 12.4901L44.13 12.3901L44.32 12.2901C44.9 12.0001 45.88 11.5201 45.88 10.4001C45.88 9.28009 44.88 8.80009 44.32 8.51009C44.1618 8.43602 44.0082 8.35254 43.86 8.26009C43.8401 7.99487 43.7157 7.74842 43.5141 7.57495C43.3125 7.40148 43.0502 7.31519 42.785 7.33509C42.5198 7.35498 42.2733 7.47941 42.0998 7.68101C41.9264 7.88261 41.8401 8.14487 41.86 8.41009C41.86 9.53009 42.86 10.0101 43.42 10.3001L43.61 10.4001L43.42 10.5001C42.84 10.7901 41.86 11.2701 41.86 12.3901C41.86 13.5101 42.86 13.9901 43.42 14.2801L43.61 14.3801L43.42 14.4801C42.84 14.7701 41.86 15.2501 41.86 16.3701C41.8401 16.6353 41.9264 16.8976 42.0998 17.0992C42.2733 17.3008 42.5198 17.4252 42.785 17.4451C43.0502 17.465 43.3125 17.3787 43.5141 17.2052C43.7157 17.0318 43.8401 16.7853 43.86 16.5201C44.0082 16.4277 44.1618 16.3442 44.32 16.2701C44.9 15.9801 45.88 15.5001 45.88 14.3801C45.88 13.2601 44.9 12.7801 44.32 12.4901Z" fill="#C10600"/>
<path d="M60.76 47.4702C60.6668 47.3492 60.5472 47.2511 60.4103 47.1835C60.2733 47.1159 60.1227 47.0806 59.97 47.0802H4.00001C3.84364 47.0748 3.68818 47.1061 3.54614 47.1717C3.4041 47.2374 3.27943 47.3354 3.18217 47.4579C3.0849 47.5805 3.01775 47.7242 2.98611 47.8774C2.95447 48.0306 2.95923 48.1891 3.00001 48.3402L4.37001 53.4702C4.60577 54.3542 5.12439 55.1367 5.84666 55.6983C6.56894 56.2599 7.45517 56.5696 8.37001 56.5802H55.47C56.3844 56.568 57.2698 56.2576 57.9918 55.6963C58.7137 55.135 59.2328 54.3534 59.47 53.4702L60.84 48.3402C60.8934 48.1986 60.9139 48.0467 60.9 47.896C60.8862 47.7453 60.8383 47.5997 60.76 47.4702Z" fill="#C10600"/>
<path d="M12.67 44.3801C12.7487 42.3129 13.2813 40.2884 14.23 38.4501C15.1614 36.6382 16.5081 35.0723 18.16 33.8801C19.7709 32.7321 21.6171 31.9571 23.5647 31.6112C25.5122 31.2653 27.5124 31.3571 29.42 31.8801C27.5521 31.5245 25.6285 31.5885 23.7883 32.0676C21.9481 32.5466 20.2375 33.4287 18.78 34.6501C17.3827 35.8509 16.2896 37.3656 15.59 39.0701C14.8988 40.7445 14.5847 42.5506 14.67 44.3601C14.682 44.6253 14.5881 44.8844 14.409 45.0804C14.2299 45.2763 13.9803 45.3931 13.715 45.4051C13.4498 45.417 13.1907 45.3231 12.9948 45.144C12.7988 44.9649 12.682 44.7153 12.67 44.4501C12.67 44.4501 12.67 44.4101 12.67 44.3801Z" fill="#F56500"/>
<path d="M51.52 22.7402H51.47L48.13 19.2402C48.0804 19.1984 48.0268 19.1616 47.97 19.1302C47.9199 19.0919 47.8664 19.0584 47.81 19.0302H47.64C47.5702 19.0228 47.4998 19.0228 47.43 19.0302H47.27C47.1946 19.0417 47.1208 19.0619 47.05 19.0902C43.5674 20.9096 40.2249 22.9854 37.05 25.3002C35.3169 26.5162 33.648 27.8213 32.05 29.2102C31.1204 30.0974 30.4747 31.2403 30.1945 32.4944C29.9142 33.7484 30.0119 35.0574 30.4753 36.256C30.9386 37.4545 31.7469 38.4889 32.7978 39.2283C33.8488 39.9677 35.0954 40.379 36.38 40.4102H36.55C38.2154 40.4139 39.8175 39.7724 41.02 38.6202C43.3406 36.122 45.5015 33.4801 47.49 30.7102C49.0085 28.562 50.3912 26.321 51.63 24.0002C51.6535 23.9551 51.6736 23.9083 51.69 23.8602V23.7602C51.7013 23.6739 51.7013 23.5865 51.69 23.5002C51.69 23.5002 51.69 23.4402 51.69 23.4102C51.7148 23.1737 51.6545 22.9362 51.52 22.7402V22.7402Z" fill="#F56500"/>
</svg>
