<?xml version="1.0" encoding="UTF-8" standalone="no"?> <svg xmlns="http://www.w3.org/2000/svg" width="47.881" height="35.555" viewBox="0 0 47.881 35.555">
  <g id="Group_2760" data-name="Group 2760" transform="translate(-72.505 -1156.499)">
    <g id="Group_2755" data-name="Group 2755">
      <g id="Group_2754" data-name="Group 2754">
        <path id="Path_616" data-name="Path 616" d="M97.567,1177.79c-3.384-2.018-5.081-6.188-5.537-8.855s-1.629-3.843-3.4-5.405-1.873-2.735-2.135-4.818-2.865-2.213-2.865-2.213a5.261,5.261,0,0,0-2.8,2.018c-.913,1.5-5.963,5.48-7.229,10.55-1.3,5.221-2.976,10.546,5.016,17.709,4.544,4.075,10.433,5.13,14.614,5.278-.18-.075-.354-.145-.54-.229a29.669,29.669,0,0,1-4.864-2.711,24.709,24.709,0,0,1-2.474-1.938,22.72,22.72,0,0,1-2.256-2.322c-.265-.3-.5-.617-.739-.934a10.34,10.34,0,0,0-.876-.746c-.219-.132-.522-.332-.874-.582s-.753-.555-1.155-.908c-.209-.17-.409-.364-.615-.555s-.4-.4-.6-.6c-.187-.218-.378-.429-.552-.648s-.345-.437-.486-.666a7.513,7.513,0,0,1-.4-.655c-.108-.219-.226-.413-.3-.611s-.146-.375-.21-.534-.085-.31-.12-.423l-.1-.368s.06.122.16.344c.053.108.1.245.188.391l.294.476c.1.172.253.34.391.529s.317.354.482.544.374.354.561.538.41.338.617.507.43.318.652.46.436.287.657.41c.182.11.36.208.535.3a16.611,16.611,0,0,1-.768-1.685,14.3,14.3,0,0,1-.5-1.4c-.138-.461-.286-.911-.373-1.363a23.761,23.761,0,0,1-.453-2.537q-.046-.594-.088-1.139a8.631,8.631,0,0,1-.041-1.022c.007-.647-.028-1.208.021-1.669.061-.918.1-1.444.1-1.444s0,.526.015,1.445c-.011.46.066,1.015.107,1.651a8.75,8.75,0,0,0,.12,1.009c.056.352.112.723.173,1.107a22.832,22.832,0,0,0,.631,2.437,12.939,12.939,0,0,0,.463,1.287,13.829,13.829,0,0,0,.578,1.3,18.769,18.769,0,0,0,1.512,2.551c.291.41.611.8.926,1.2.345.374.658.777,1.03,1.129s.721.719,1.108,1.046c.371.345.778.647,1.167.961.544.406,1.1.791,1.655,1.146v-.005c-.075-.323-.154-.676-.238-1.048s-.146-.771-.222-1.177-.128-.834-.192-1.265-.1-.872-.144-1.309l-.035-.331-.011-.085,0-.094-.008-.161c-.01-.219-.028-.43-.018-.655,0-.446.02-.872.046-1.281.059-.822.146-1.586.254-2.233.053-.325.1-.622.157-.879s.094-.491.149-.674c.1-.37.151-.579.151-.579s-.035.213-.094.589c-.037.188-.051.418-.081.681s-.049.562-.073.886c-.041.647-.053,1.408-.034,2.217.014.406.034.823.077,1.234.01.2.049.421.081.635l.024.158c0,.023.008.067.01.069l.019.078.074.317c.1.418.182.841.3,1.247s.228.811.338,1.2.242.752.354,1.1c.128.346.245.672.354.975.232.6.285.752.437,1.09a1.214,1.214,0,0,0,.428.487,29.484,29.484,0,0,0,6.94,2.47c.428.089.764.153.988.189a6.447,6.447,0,0,0,2.992-.412,5.347,5.347,0,0,0,2.024-2.95C104.141,1182.67,100.951,1179.81,97.567,1177.79Z" fill="#80d25b"/>
      </g>
    </g>
    <g id="Group_2757" data-name="Group 2757">
      <g id="Group_2756" data-name="Group 2756">
        <path id="Path_617" data-name="Path 617" d="M97.259,1168.61a9.333,9.333,0,0,0,1.538-1.427,5.488,5.488,0,0,1,3.534-4.6c.222-.114.45-.229.564-.305a2.155,2.155,0,0,0,.468-.874,4.608,4.608,0,0,1,.7-2.86,14.588,14.588,0,0,0-4.9-.674c-2.592.1-3.848-.725-5.418-.883-.813-.081-2.7.871-4.335,1.809a4.729,4.729,0,0,1,.175.786l.018.154c.206,1.646.241,1.944,1.131,2.729,1.85,1.629,3.306,3.125,3.842,6.261a10.726,10.726,0,0,0,.643,2.206A5.747,5.747,0,0,1,97.259,1168.61Z" fill="#1e9b50"/>
      </g>
    </g>
    <g id="Group_2759" data-name="Group 2759">
      <g id="Group_2758" data-name="Group 2758">
        <path id="Path_618" data-name="Path 618" d="M119.117,1169.26c-2.038-5.717-4.493-6.7-5.666-7.682s-3.125-3.779-4.427-3.71c-2.729.143-2.02,2.668-2.085,2.862a5.338,5.338,0,0,1-1.692,2.8c-1.172.783-3.32,1.236-3.385,3.517s-3.583,2.995-4.04,5.145c-.247,1.171-1.56,1.563.848,3.059s8.725,5.8,7.032,12.48a6.569,6.569,0,0,1-1.865,2.933,3.275,3.275,0,0,0,.539-.262c.161-.1.4-.256.705-.461a24.71,24.71,0,0,0,2.406-1.9c.566-.508,1.169-1.1,1.768-1.761.227-.741.451-1.479.461-1.561.025-.164.053-.409.075-.7s.039-.636.029-1c0-.184-.011-.374-.023-.567s-.037-.387-.057-.586-.059-.387-.1-.576-.078-.38-.14-.553a5.274,5.274,0,0,0-.173-.507c-.069-.153-.122-.311-.195-.442s-.14-.252-.2-.359-.129-.187-.178-.259l-.164-.229s.073.074.2.2c.062.063.147.135.228.23s.167.208.266.325.179.268.279.417.177.322.273.491.163.362.247.55.143.391.214.59.124.4.169.6.1.4.131.592c.079.387.122.752.16,1.066.014.141.023.268.032.384q.544-.749,1.038-1.568c.2-.367.421-.729.6-1.116.128-.243.242-.5.352-.753l-.017-.023.031-.008c.052-.124.107-.249.159-.378.177-.39.291-.8.438-1.2.118-.408.24-.816.334-1.227a15.262,15.262,0,0,0,.358-2.454,10.592,10.592,0,0,0,.033-1.19,10.724,10.724,0,0,0-.049-1.144,19.578,19.578,0,0,0-.287-2.088c-.076-.32-.149-.622-.22-.914a7.882,7.882,0,0,0-.228-.817c-.171-.506-.289-.961-.444-1.313l-.448-1.124s.195.394.534,1.089c.185.34.336.785.549,1.281a8.215,8.215,0,0,1,.293.808c.094.289.192.594.295.91a19.3,19.3,0,0,1,.458,2.108,11.118,11.118,0,0,1,.144,1.176,12.2,12.2,0,0,1,.062,1.235,16.51,16.51,0,0,1-.175,2.6c-.041.271-.1.543-.149.815.085-.115.168-.228.257-.347.167-.244.338-.5.512-.749s.333-.525.5-.79l.123-.2.032-.052a.193.193,0,0,0,.024-.043l.055-.1c.073-.14.149-.278.206-.415.128-.271.24-.55.348-.82.208-.545.384-1.063.511-1.51.063-.223.126-.43.168-.612s.086-.344.11-.475l.077-.421s-.014.153-.038.422c-.008.134-.037.3-.063.483s-.065.4-.106.628c-.087.457-.21.99-.367,1.559-.081.282-.167.573-.278.876-.048.156-.111.3-.17.44l-.044.11-.027.061-.026.054-.1.215c-.138.29-.263.585-.412.863s-.29.555-.432.82-.294.515-.433.755-.285.459-.413.665c-.263.409-.494.748-.66.981-.024.031-.041.058-.063.085-.23.632-.483,1.258-.771,1.856a21.115,21.115,0,0,1-1.3,2.286,24.586,24.586,0,0,1-2.9,3.648c-.189.2-.371.382-.552.561,2.815-.864,6.122-2.275,7.907-4.443C121.158,1179.35,121.135,1174.92,119.117,1169.26Z" fill="#80d25b"/>
      </g>
    </g>
  </g>
</svg>
